STARTFONT 2.1
FONT -bited-Kapli-Regular-I-Normal--12-110-75-75-P-65-ISO10646-1
SIZE 11 75 75
FONTBOUNDINGBOX 9 11 0 -3
STARTPROPERTIES 27
FOUNDRY "bited"
FAMILY_NAME "Kapli"
WEIGHT_NAME "Regular"
SLANT "I"
SETWIDTH_NAME "Normal"
ADD_STYLE_NAME ""
PIXEL_SIZE 12
POINT_SIZE 110
RESOLUTION_X 75
RESOLUTION_Y 75
SPACING "P"
AVERAGE_WIDTH 65
CHARSET_REGISTRY "ISO10646"
CHARSET_ENCODING "1"
FONT_ASCENT 9
FONT_DESCENT 3
CAP_HEIGHT 8
X_HEIGHT 6
COPYRIGHT "bogdanov"
BITED_DWIDTH 8
BITED_TABLE_WIDTH -16
BITED_TABLE_CELL_SCALE 1
BITED_EDITOR_GRID_SIZE 32
BITED_EDITOR_CELL_SIZE 12
FONT_NAME "Kapli"
FACE_NAME "Kapli-Italic"
FONT_VERSION "0.1.0"
ENDPROPERTIES
CHARS 97
STARTCHAR U+0000
ENCODING 0
SWIDTH 746 0
DWIDTH 7 0
BBX 6 8 0 0
BITMAP
FC
84
84
84
84
84
84
FC
ENDCHAR
STARTCHAR U+0020
ENCODING 32
SWIDTH 853 0
DWIDTH 8 0
BBX 0 0 0 0
BITMAP
ENDCHAR
STARTCHAR U+0021
ENCODING 33
SWIDTH 426 0
DWIDTH 4 0
BBX 3 8 0 0
BITMAP
20
20
20
40
40
40
00
80
ENDCHAR
STARTCHAR U+0022
ENCODING 34
SWIDTH 640 0
DWIDTH 6 0
BBX 4 2 1 6
BITMAP
90
90
ENDCHAR
STARTCHAR U+0023
ENCODING 35
SWIDTH 853 0
DWIDTH 8 0
BBX 7 8 0 0
BITMAP
24
24
FE
48
48
FC
90
90
ENDCHAR
STARTCHAR U+0024
ENCODING 36
SWIDTH 746 0
DWIDTH 7 0
BBX 6 10 0 -1
BITMAP
10
10
78
84
60
18
84
78
20
20
ENDCHAR
STARTCHAR U+0025
ENCODING 37
SWIDTH 960 0
DWIDTH 9 0
BBX 8 8 0 0
BITMAP
60
93
94
68
16
29
C9
06
ENDCHAR
STARTCHAR U+0026
ENCODING 38
SWIDTH 853 0
DWIDTH 8 0
BBX 7 8 0 0
BITMAP
18
24
24
38
4A
84
8A
72
ENDCHAR
STARTCHAR U+0027
ENCODING 39
SWIDTH 426 0
DWIDTH 4 0
BBX 1 2 1 6
BITMAP
80
80
ENDCHAR
STARTCHAR U+0028
ENCODING 40
SWIDTH 533 0
DWIDTH 5 0
BBX 4 10 0 -1
BITMAP
30
40
40
40
40
80
80
80
80
60
ENDCHAR
STARTCHAR U+0029
ENCODING 41
SWIDTH 533 0
DWIDTH 5 0
BBX 4 10 0 -1
BITMAP
60
10
10
10
10
20
20
20
20
C0
ENDCHAR
STARTCHAR U+002A
ENCODING 42
SWIDTH 640 0
DWIDTH 6 0
BBX 5 5 0 1
BITMAP
20
A8
70
A8
20
ENDCHAR
STARTCHAR U+002B
ENCODING 43
SWIDTH 640 0
DWIDTH 6 0
BBX 5 5 0 1
BITMAP
20
20
F8
20
20
ENDCHAR
STARTCHAR U+002C
ENCODING 44
SWIDTH 426 0
DWIDTH 4 0
BBX 2 3 0 -1
BITMAP
40
40
80
ENDCHAR
STARTCHAR U+002D
ENCODING 45
SWIDTH 640 0
DWIDTH 6 0
BBX 5 1 0 3
BITMAP
F8
ENDCHAR
STARTCHAR U+002E
ENCODING 46
SWIDTH 320 0
DWIDTH 3 0
BBX 1 2 0 0
BITMAP
80
80
ENDCHAR
STARTCHAR U+002F
ENCODING 47
SWIDTH 533 0
DWIDTH 5 0
BBX 4 8 0 0
BITMAP
10
10
20
20
40
40
80
80
ENDCHAR
STARTCHAR U+0030
ENCODING 48
SWIDTH 746 0
DWIDTH 7 0
BBX 6 8 0 0
BITMAP
38
44
8C
94
A4
C4
88
70
ENDCHAR
STARTCHAR U+0031
ENCODING 49
SWIDTH 426 0
DWIDTH 4 0
BBX 3 8 0 0
BITMAP
20
60
20
20
40
40
40
E0
ENDCHAR
STARTCHAR U+0032
ENCODING 50
SWIDTH 746 0
DWIDTH 7 0
BBX 6 8 0 0
BITMAP
38
44
04
08
30
40
80
F8
ENDCHAR
STARTCHAR U+0033
ENCODING 51
SWIDTH 746 0
DWIDTH 7 0
BBX 6 8 0 0
BITMAP
38
44
04
04
38
08
88
70
ENDCHAR
STARTCHAR U+0034
ENCODING 52
SWIDTH 640 0
DWIDTH 6 0
BBX 5 8 0 0
BITMAP
18
28
48
88
F8
10
10
10
ENDCHAR
STARTCHAR U+0035
ENCODING 53
SWIDTH 746 0
DWIDTH 7 0
BBX 6 8 0 0
BITMAP
3C
40
40
78
04
04
88
70
ENDCHAR
STARTCHAR U+0036
ENCODING 54
SWIDTH 746 0
DWIDTH 7 0
BBX 6 8 0 0
BITMAP
1C
20
40
78
84
84
88
70
ENDCHAR
STARTCHAR U+0037
ENCODING 55
SWIDTH 746 0
DWIDTH 7 0
BBX 6 8 0 0
BITMAP
FC
04
08
08
10
10
20
20
ENDCHAR
STARTCHAR U+0038
ENCODING 56
SWIDTH 746 0
DWIDTH 7 0
BBX 6 8 0 0
BITMAP
38
44
84
98
64
84
88
70
ENDCHAR
STARTCHAR U+0039
ENCODING 57
SWIDTH 746 0
DWIDTH 7 0
BBX 6 8 0 0
BITMAP
38
44
84
84
7C
04
08
70
ENDCHAR
STARTCHAR U+003A
ENCODING 58
SWIDTH 533 0
DWIDTH 5 0
BBX 2 8 1 0
BITMAP
40
40
00
00
00
00
80
80
ENDCHAR
STARTCHAR U+003B
ENCODING 59
SWIDTH 533 0
DWIDTH 5 0
BBX 3 9 0 -1
BITMAP
20
20
00
00
00
00
40
40
80
ENDCHAR
STARTCHAR U+003C
ENCODING 60
SWIDTH 746 0
DWIDTH 7 0
BBX 6 7 0 0
BITMAP
0C
30
40
80
40
30
0C
ENDCHAR
STARTCHAR U+003D
ENCODING 61
SWIDTH 640 0
DWIDTH 6 0
BBX 5 4 0 2
BITMAP
F8
00
00
F8
ENDCHAR
STARTCHAR U+003E
ENCODING 62
SWIDTH 746 0
DWIDTH 7 0
BBX 6 7 0 0
BITMAP
C0
30
08
04
08
30
C0
ENDCHAR
STARTCHAR U+003F
ENCODING 63
SWIDTH 746 0
DWIDTH 7 0
BBX 6 8 0 0
BITMAP
38
44
84
08
10
20
00
20
ENDCHAR
STARTCHAR U+0040
ENCODING 64
SWIDTH 960 0
DWIDTH 9 0
BBX 8 9 0 0
BITMAP
1E
21
4D
92
A2
A4
99
42
3C
ENDCHAR
STARTCHAR U+0041
ENCODING 65
SWIDTH 746 0
DWIDTH 7 0
BBX 6 8 0 0
BITMAP
08
14
24
24
44
7C
84
84
ENDCHAR
STARTCHAR U+0042
ENCODING 66
SWIDTH 746 0
DWIDTH 7 0
BBX 6 8 0 0
BITMAP
78
44
44
78
84
84
84
F8
ENDCHAR
STARTCHAR U+0043
ENCODING 67
SWIDTH 746 0
DWIDTH 7 0
BBX 6 8 0 0
BITMAP
38
44
80
80
80
84
48
30
ENDCHAR
STARTCHAR U+0044
ENCODING 68
SWIDTH 746 0
DWIDTH 7 0
BBX 6 8 0 0
BITMAP
70
48
44
44
84
84
88
F0
ENDCHAR
STARTCHAR U+0045
ENCODING 69
SWIDTH 746 0
DWIDTH 7 0
BBX 6 8 0 0
BITMAP
7C
40
40
70
80
80
80
F8
ENDCHAR
STARTCHAR U+0046
ENCODING 70
SWIDTH 746 0
DWIDTH 7 0
BBX 6 8 0 0
BITMAP
7C
40
40
40
70
80
80
80
ENDCHAR
STARTCHAR U+0047
ENCODING 71
SWIDTH 746 0
DWIDTH 7 0
BBX 6 8 0 0
BITMAP
38
44
80
80
BC
84
84
78
ENDCHAR
STARTCHAR U+0048
ENCODING 72
SWIDTH 746 0
DWIDTH 7 0
BBX 6 8 0 0
BITMAP
44
44
44
44
78
88
88
88
ENDCHAR
STARTCHAR U+0049
ENCODING 73
SWIDTH 533 0
DWIDTH 5 0
BBX 4 8 0 0
BITMAP
70
20
20
20
40
40
40
E0
ENDCHAR
STARTCHAR U+004A
ENCODING 74
SWIDTH 640 0
DWIDTH 6 0
BBX 5 8 0 0
BITMAP
38
08
08
08
10
90
90
60
ENDCHAR
STARTCHAR U+004B
ENCODING 75
SWIDTH 746 0
DWIDTH 7 0
BBX 6 8 0 0
BITMAP
44
44
48
70
88
88
84
84
ENDCHAR
STARTCHAR U+004C
ENCODING 76
SWIDTH 533 0
DWIDTH 5 0
BBX 4 8 0 0
BITMAP
40
40
40
40
80
80
80
F0
ENDCHAR
STARTCHAR U+004D
ENCODING 77
SWIDTH 853 0
DWIDTH 8 0
BBX 7 8 0 0
BITMAP
42
66
5A
52
82
84
84
84
ENDCHAR
STARTCHAR U+004E
ENCODING 78
SWIDTH 853 0
DWIDTH 8 0
BBX 6 8 0 0
BITMAP
44
64
64
54
94
88
88
88
ENDCHAR
STARTCHAR U+004F
ENCODING 79
SWIDTH 746 0
DWIDTH 7 0
BBX 6 8 0 0
BITMAP
18
24
44
84
84
84
88
70
ENDCHAR
STARTCHAR U+0050
ENCODING 80
SWIDTH 853 0
DWIDTH 8 0
BBX 7 8 0 0
BITMAP
38
24
22
42
7C
40
80
80
ENDCHAR
STARTCHAR U+0051
ENCODING 81
SWIDTH 746 0
DWIDTH 7 0
BBX 6 9 0 -1
BITMAP
18
24
44
84
84
94
88
74
04
ENDCHAR
STARTCHAR U+0052
ENCODING 82
SWIDTH 853 0
DWIDTH 8 0
BBX 7 8 0 0
BITMAP
38
24
22
42
7C
50
88
84
ENDCHAR
STARTCHAR U+0053
ENCODING 83
SWIDTH 746 0
DWIDTH 7 0
BBX 6 8 0 0
BITMAP
78
84
80
60
18
04
C4
38
ENDCHAR
STARTCHAR U+0054
ENCODING 84
SWIDTH 640 0
DWIDTH 6 0
BBX 5 8 0 0
BITMAP
F8
20
20
20
20
40
40
40
ENDCHAR
STARTCHAR U+0055
ENCODING 85
SWIDTH 746 0
DWIDTH 7 0
BBX 6 8 0 0
BITMAP
44
44
44
44
84
88
88
70
ENDCHAR
STARTCHAR U+0056
ENCODING 86
SWIDTH 853 0
DWIDTH 8 0
BBX 7 8 0 0
BITMAP
82
82
84
84
48
48
50
20
ENDCHAR
STARTCHAR U+0057
ENCODING 87
SWIDTH 1066 0
DWIDTH 10 0
BBX 9 8 0 0
BITMAP
8080
8080
8080
8100
4900
4900
5A00
2400
ENDCHAR
STARTCHAR U+0058
ENCODING 88
SWIDTH 853 0
DWIDTH 8 0
BBX 7 8 0 0
BITMAP
42
42
44
28
30
48
84
84
ENDCHAR
STARTCHAR U+0059
ENCODING 89
SWIDTH 746 0
DWIDTH 7 0
BBX 6 8 0 0
BITMAP
84
84
88
48
50
20
20
20
ENDCHAR
STARTCHAR U+005A
ENCODING 90
SWIDTH 746 0
DWIDTH 7 0
BBX 6 8 0 0
BITMAP
7C
04
08
10
20
40
80
FC
ENDCHAR
STARTCHAR U+005B
ENCODING 91
SWIDTH 640 0
DWIDTH 6 0
BBX 5 11 0 -2
BITMAP
78
40
40
40
40
80
80
80
80
80
F0
ENDCHAR
STARTCHAR U+005C
ENCODING 92
SWIDTH 533 0
DWIDTH 5 0
BBX 4 8 0 0
BITMAP
80
80
40
40
20
20
10
10
ENDCHAR
STARTCHAR U+005D
ENCODING 93
SWIDTH 640 0
DWIDTH 6 0
BBX 5 11 0 -2
BITMAP
78
08
08
08
08
10
10
10
10
10
F0
ENDCHAR
STARTCHAR U+005E
ENCODING 94
SWIDTH 640 0
DWIDTH 6 0
BBX 5 4 0 4
BITMAP
20
50
88
88
ENDCHAR
STARTCHAR U+005F
ENCODING 95
SWIDTH 746 0
DWIDTH 7 0
BBX 6 1 0 0
BITMAP
FC
ENDCHAR
STARTCHAR U+0060
ENCODING 96
SWIDTH 533 0
DWIDTH 5 0
BBX 3 4 1 5
BITMAP
80
80
40
20
ENDCHAR
STARTCHAR U+0061
ENCODING 97
SWIDTH 746 0
DWIDTH 7 0
BBX 6 6 0 0
BITMAP
38
44
84
88
88
74
ENDCHAR
STARTCHAR U+0062
ENCODING 98
SWIDTH 746 0
DWIDTH 7 0
BBX 6 8 0 0
BITMAP
40
40
40
70
48
84
84
F8
ENDCHAR
STARTCHAR U+0063
ENCODING 99
SWIDTH 746 0
DWIDTH 7 0
BBX 6 6 0 0
BITMAP
38
44
80
80
88
70
ENDCHAR
STARTCHAR U+0064
ENCODING 100
SWIDTH 746 0
DWIDTH 7 0
BBX 6 7 0 0
BITMAP
04
04
3C
44
88
88
78
ENDCHAR
STARTCHAR U+0065
ENCODING 101
SWIDTH 746 0
DWIDTH 7 0
BBX 6 6 0 0
BITMAP
38
44
84
F8
80
78
ENDCHAR
STARTCHAR U+0066
ENCODING 102
SWIDTH 746 0
DWIDTH 7 0
BBX 7 10 0 -2
BITMAP
06
08
10
10
7C
10
10
20
20
C0
ENDCHAR
STARTCHAR U+0067
ENCODING 103
SWIDTH 746 0
DWIDTH 7 0
BBX 6 8 0 -2
BITMAP
38
44
84
84
78
08
10
E0
ENDCHAR
STARTCHAR U+0068
ENCODING 104
SWIDTH 746 0
DWIDTH 7 0
BBX 6 8 0 0
BITMAP
40
40
40
70
48
84
84
84
ENDCHAR
STARTCHAR U+0069
ENCODING 105
SWIDTH 320 0
DWIDTH 3 0
BBX 2 8 0 0
BITMAP
40
00
C0
40
40
80
80
80
ENDCHAR
STARTCHAR U+006A
ENCODING 106
SWIDTH 640 0
DWIDTH 6 0
BBX 5 11 0 -3
BITMAP
08
00
18
08
08
08
10
10
90
90
60
ENDCHAR
STARTCHAR U+006B
ENCODING 107
SWIDTH 746 0
DWIDTH 7 0
BBX 6 8 0 0
BITMAP
40
40
44
48
70
88
84
84
ENDCHAR
STARTCHAR U+006C
ENCODING 108
SWIDTH 426 0
DWIDTH 4 0
BBX 3 8 0 0
BITMAP
40
40
40
80
80
80
80
60
ENDCHAR
STARTCHAR U+006D
ENCODING 109
SWIDTH 960 0
DWIDTH 9 0
BBX 8 6 0 0
BITMAP
B6
49
49
91
92
82
ENDCHAR
STARTCHAR U+006E
ENCODING 110
SWIDTH 746 0
DWIDTH 7 0
BBX 6 6 0 0
BITMAP
B8
44
44
84
88
88
ENDCHAR
STARTCHAR U+006F
ENCODING 111
SWIDTH 746 0
DWIDTH 7 0
BBX 6 6 0 0
BITMAP
38
44
84
84
88
70
ENDCHAR
STARTCHAR U+0070
ENCODING 112
SWIDTH 853 0
DWIDTH 8 0
BBX 7 9 0 -3
BITMAP
5C
22
22
42
44
78
40
80
80
ENDCHAR
STARTCHAR U+0071
ENCODING 113
SWIDTH 746 0
DWIDTH 7 0
BBX 6 9 0 -3
BITMAP
34
48
88
88
84
7C
04
04
04
ENDCHAR
STARTCHAR U+0072
ENCODING 114
SWIDTH 640 0
DWIDTH 6 0
BBX 5 6 0 0
BITMAP
B8
40
40
80
80
80
ENDCHAR
STARTCHAR U+0073
ENCODING 115
SWIDTH 746 0
DWIDTH 7 0
BBX 6 6 0 0
BITMAP
78
84
60
18
C4
38
ENDCHAR
STARTCHAR U+0074
ENCODING 116
SWIDTH 533 0
DWIDTH 5 0
BBX 4 8 0 0
BITMAP
40
40
40
70
80
80
90
60
ENDCHAR
STARTCHAR U+0075
ENCODING 117
SWIDTH 746 0
DWIDTH 7 0
BBX 6 6 0 0
BITMAP
44
44
84
84
88
70
ENDCHAR
STARTCHAR U+0076
ENCODING 118
SWIDTH 746 0
DWIDTH 7 0
BBX 6 6 0 0
BITMAP
84
84
88
48
50
20
ENDCHAR
STARTCHAR U+0077
ENCODING 119
SWIDTH 960 0
DWIDTH 9 0
BBX 8 6 0 0
BITMAP
41
49
89
92
92
6C
ENDCHAR
STARTCHAR U+0078
ENCODING 120
SWIDTH 640 0
DWIDTH 6 0
BBX 5 6 0 0
BITMAP
48
50
20
50
88
88
ENDCHAR
STARTCHAR U+0079
ENCODING 121
SWIDTH 746 0
DWIDTH 7 0
BBX 6 8 0 -2
BITMAP
44
44
84
88
78
08
10
E0
ENDCHAR
STARTCHAR U+007A
ENCODING 122
SWIDTH 640 0
DWIDTH 6 0
BBX 5 6 0 0
BITMAP
78
08
10
20
40
F8
ENDCHAR
STARTCHAR U+007B
ENCODING 123
SWIDTH 640 0
DWIDTH 6 0
BBX 5 10 0 -1
BITMAP
18
20
20
20
E0
40
40
40
40
30
ENDCHAR
STARTCHAR U+007C
ENCODING 124
SWIDTH 320 0
DWIDTH 3 0
BBX 2 10 0 -1
BITMAP
40
40
40
40
40
80
80
80
80
80
ENDCHAR
STARTCHAR U+007D
ENCODING 125
SWIDTH 640 0
DWIDTH 6 0
BBX 5 10 0 -1
BITMAP
60
10
10
10
10
38
20
20
20
C0
ENDCHAR
STARTCHAR U+007E
ENCODING 126
SWIDTH 853 0
DWIDTH 8 0
BBX 7 3 0 3
BITMAP
62
92
8C
ENDCHAR
STARTCHAR U+007F
ENCODING 127
SWIDTH 746 0
DWIDTH 7 0
BBX 6 8 0 0
BITMAP
FC
84
84
84
84
84
84
FC
ENDCHAR
ENDFONT
